<?xml version="1.0" encoding="utf-8"?>
<!-- Generator: Adobe Illustrator 26.0.3, SVG Export Plug-In . SVG Version: 6.00 Build 0)  -->
<svg version="1.1" id="Layer_1" xmlns="http://www.w3.org/2000/svg" xmlns:xlink="http://www.w3.org/1999/xlink" x="0px" y="0px"
	 viewBox="0 0 200 285" style="enable-background:new 0 0 200 285;" xml:space="preserve">
<style type="text/css">
	.st0{fill:#EEE2E5;}
	.st1{fill:#BA141A;}
	.st2{fill:#003C83;}
</style>
<g>
	<polygon class="st0" points="200,285 99.5,217.7 0,285 0,0 200,0 	"/>
	<g>
		<polygon class="st1" points="0,285 18.2,272.7 18.2,0 0,0 		"/>
		<polygon class="st1" points="54.6,0 36.4,0 36.4,260.4 54.6,248.1 		"/>
		<polygon class="st1" points="181.8,272.8 200,285 200,0 181.8,0 		"/>
		<polygon class="st1" points="109.1,224.1 127.3,236.3 127.3,0 109.1,0 		"/>
		<polygon class="st1" points="163.6,0 145.5,0 145.5,248.5 163.6,260.6 		"/>
		<polygon class="st1" points="90.9,0 72.8,0 72.8,235.8 90.9,223.5 		"/>
	</g>
	<rect class="st2" width="200" height="19.2"/>
	<g>
		<polygon class="st0" points="100.1,4.6 101.2,8.2 104.9,8.2 101.9,10.3 103.1,13.9 100.1,11.7 97.1,13.9 98.2,10.3 95.2,8.2 
			98.9,8.2 		"/>
		<polygon class="st0" points="81.9,4.6 83,8.2 86.7,8.2 83.7,10.3 84.9,13.9 81.9,11.7 78.9,13.9 80,10.3 77,8.2 80.7,8.2 		"/>
		<polygon class="st0" points="63.7,4.6 64.8,8.2 68.5,8.2 65.5,10.3 66.7,13.9 63.7,11.7 60.7,13.9 61.8,10.3 58.8,8.2 62.5,8.2 		
			"/>
		<polygon class="st0" points="45.5,4.6 46.6,8.2 50.3,8.2 47.3,10.3 48.5,13.9 45.5,11.7 42.5,13.9 43.6,10.3 40.6,8.2 44.3,8.2 		
			"/>
		<polygon class="st0" points="27.3,4.6 28.4,8.2 32.1,8.2 29.1,10.3 30.3,13.9 27.3,11.7 24.3,13.9 25.4,10.3 22.4,8.2 26.1,8.2 		
			"/>
		<polygon class="st0" points="9.1,4.6 10.2,8.2 13.9,8.2 10.9,10.3 12.1,13.9 9.1,11.7 6.1,13.9 7.2,10.3 4.2,8.2 7.9,8.2 		"/>
		<polygon class="st0" points="118.3,4.6 119.4,8.2 123.1,8.2 120.1,10.3 121.3,13.9 118.3,11.7 115.3,13.9 116.4,10.3 113.4,8.2 
			117.1,8.2 		"/>
		<polygon class="st0" points="136.5,4.6 137.7,8.2 141.4,8.2 138.4,10.3 139.5,13.9 136.5,11.7 133.5,13.9 134.7,10.3 131.7,8.2 
			135.4,8.2 		"/>
		<polygon class="st0" points="154.8,4.6 155.9,8.2 159.6,8.2 156.6,10.3 157.8,13.9 154.8,11.7 151.8,13.9 152.9,10.3 149.9,8.2 
			153.6,8.2 		"/>
		<polygon class="st0" points="173,4.6 174.1,8.2 177.8,8.2 174.9,10.3 176,13.9 173,11.7 170,13.9 171.1,10.3 168.2,8.2 171.9,8.2 
					"/>
		<polygon class="st0" points="191.2,4.6 192.4,8.2 196.1,8.2 193.1,10.3 194.2,13.9 191.2,11.7 188.2,13.9 189.4,10.3 186.4,8.2 
			190.1,8.2 		"/>
	</g>
</g>
<g>
	<circle class="st2" cx="100" cy="119" r="90"/>
	<circle class="st0" cx="100" cy="119" r="81.1"/>
	<circle class="st1" cx="100" cy="119" r="77"/>
	<circle class="st0" cx="100" cy="119" r="72.5"/>
</g>
</svg>
