<?xml version="1.0" encoding="utf-8"?>
<!-- Generator: Adobe Illustrator 26.0.3, SVG Export Plug-In . SVG Version: 6.00 Build 0)  -->
<svg version="1.1" id="Layer_1" xmlns="http://www.w3.org/2000/svg" xmlns:xlink="http://www.w3.org/1999/xlink" x="0px" y="0px"
	 viewBox="0 0 500 400" style="enable-background:new 0 0 500 400;" xml:space="preserve">
<style type="text/css">
	.st0{fill:#EEE2E5;}
	.st1{fill:#CE3630;}
	.st2{fill:#282D69;}
</style>
<g>
	<path class="st0" d="M324.7,245c-6-2.6-9.7-6-8.4-8.3c1-1.9,5.8,2.3,8.4,3.6v-79.7c-2.1,0.5-3.8,0.5-4.9-0.1
		c-4.1-2.2-0.4-9.7-4.5-11.2c-0.5-0.2-1.8-0.3-3.7-0.4c-0.2-0.1-0.5-0.1-0.7-0.2c-2.1-0.3-2.8-3.1-3.5-5.5s-2.4-4.8-4.8-8.1
		s0.1-9.6-0.7-13.9c-0.8-4.2-2-7.4-5.5-9.6v179c4.2,0.6,8.7,1.5,10.4,2.6c2.1,1.3,10,6.2,17.9,9.2L324.7,245L324.7,245z"/>
	<polygon class="st0" points="469.4,171.3 470,154.1 466.3,158.8 466.3,170.5 467,168.8 	"/>
	<path class="st0" d="M353,225.5c2.9,2.2,5.8,4.3,6.5,4c1.4-0.6-0.1-14.4,0.8-14.9c0.9-0.6,15.3,8.2,16.7,7.1
		c1.4-1.2-1.2-11.1,0-12.3c0.4-0.4,2.2,0.1,4.4,0.9V46.6c-12.8,9.1-23.4,17.3-27.6,21.7c-0.3,0.3-0.5,0.6-0.8,0.8V225.5z"/>
	<path class="st0" d="M268.1,65.9c-2.4-0.6-4.8-1.1-6.9-1.3c-7.5-1-11.7,0.9-15.1,2c-1.6,0.5-3.8,0.9-6.3,1.2v25.9
		c5.6,1,7.8-0.8,8,0.7c0.3,1.8-4.1,11.9-6.4,16c-0.4,0.7-1,1.6-1.7,2.7v266.5c1.6-1.5,2.6-2.8,2.6-2.8s2.1,14.8,4.7,18.7v4.6
		l4.7-4.9c2.6-1.6,5.5-4.3,6.9-5.6c1.4,1.3,4.3,4,6.9,5.6l2.4,2.5V65.9H268.1z"/>
	<polygon class="st0" points="491.5,205.1 492.4,209.2 494.6,204.2 494.6,195.3 482.7,202.4 486.5,203.6 476.7,215.8 478.3,206.9 
		466.3,218.7 466.3,219 467.7,220 466.3,221.3 466.3,243.6 484.6,225.8 485.7,228.8 493.7,214.5 479.5,223.2 480.8,224.4 
		468.7,233.4 	"/>
	<path class="st0" d="M438,200.4l-1.1-8.9l-9.4,14.4l3.2,1.1l-3.7,12.4l-3.6-15.4l-6.3,15.7l3.1,1.4l-10.6,53.6v43.5
		c1.2-1.4,3-2.6,4.9-3c3-0.6,7.7-2.8,7.9-6.7c0.2-3.9,4.7-7.2,6.2-8.8c1.5-1.6,2.6-7.1-0.2-9c-0.7-0.5-2.2-1.3-3.9-2.2
		c3.8-3.1,8.5-7,13.4-11.2v-76.9H438z"/>
	<path class="st0" d="M298.6,322.4c-0.7-0.7-1.5-1.4-2.2-2.1v48.9c3.8,2.2,8.3,4.2,9.3,2.6c1.9-3-4.5-20.2-4.5-20.2
		s11.9,2.2,13.1,0.4C315.4,350.2,305.3,328.8,298.6,322.4z"/>
	<polygon class="st0" points="381.4,318 378.1,321.2 369.4,321.6 353,333.7 353,349.3 355.1,350.6 353.5,353.5 361.9,352.4 
		362.4,360.8 368.6,359.7 368.1,363.8 373.2,363.9 373.2,367.6 377.5,366.1 379,368.6 381.4,367.7 	"/>
	<path class="st0" d="M381.4,300.8v-12.6c-4.2-0.2-8.8-0.5-10.7-1.1c-3.8-1.2-6-2.9-9.2-8.2c-1.5-2.4-4.9-6.2-8.4-9.9v34.4
		c6.1-0.9,11.7-1.9,14.9-2.3C371.2,300.7,376.6,300.7,381.4,300.8z"/>
	<path class="st0" d="M473.9,247.1c0.2-0.6,1.7,2.9,1.7,2.9l6.8-12.1l-13.9,6.3l2,1.1l-4.2,2.8v5.6
		C470.9,249.8,473.9,247.3,473.9,247.1z"/>
	<polygon class="st0" points="488.9,184.9 492,169.6 479.2,179.8 481.5,180.4 473.6,193.4 475.4,179.8 466.3,189.5 466.3,213.8 
		486.9,182.2 	"/>
	<path class="st0" d="M422.2,170.2c0.7-2-10.9-8.2-12.5-10.8v12.4C414.9,171.6,421.7,171.5,422.2,170.2z"/>
	<path class="st0" d="M466.3,15.2c7.5-6.5,16-13.8,15.4-15.1c0,0-6.3-0.5-15.4,0.8V15.2z"/>
	<path class="st0" d="M409.7,158.5c1.9-1.8,19.1-2.7,19.5-4.2c0.5-1.5-10.1-5-9.3-8.2c0.8-3.2,15.9-4.9,16.1-6.6
		c0.2-1.7-10-5.3-9.8-7.3c0.2-1.3,7.1-4.7,11.8-7.3v-5.2c-3.4-1.1-7.7-2.2-7.5-3.5c0.1-1.4,4.3-3.5,7.5-5.6v-5.3
		c-4.1-0.8-10.2-1-10.2-2.6c0-1.4,5.5-4.4,10.2-7.1v-5.4c-5.1-0.2-11.6-0.3-11.8-1.6c-0.2-1.4,6.5-5.6,11.8-9.3v-6.2
		c-6.1,0.3-14.7,1.3-14.9-0.3c-0.2-1.2,7.2-6,14.9-10.9V10.3c-7.4,4-17.5,10.2-28.3,17.1L409.7,158.5L409.7,158.5z"/>
	<path class="st0" d="M414,184c0.3-0.8-1.9-2.9-4.3-5.1v5.7C412,184.7,413.8,184.6,414,184z"/>
</g>
<g>
	<path class="st1" d="M324.7,160.6v79.7c0.6,0.3,1.1,0.4,1.4,0.3c1.7-0.6,4.4-13.3,6-13.5s11.3,9.5,13,8.5s0.6-14.2,1.4-14.6
		c0.4-0.2,3.5,2.3,6.6,4.6V69.1c-10.8,11.7-18.2,23.8-15.6,34c2.6,10.5,14.2,10.1,15.3,15.4c1.1,5.2-1.1,22.9-8.2,30.4
		C339.2,154.4,330.6,159.3,324.7,160.6z"/>
	<polygon class="st1" points="466.3,219 466.3,218.7 466.1,218.9 	"/>
	<path class="st1" d="M466.3,15.1V0.9c-6.7,1-14.8,2.9-23,6.7c-1.5,0.7-3.3,1.6-5.3,2.7v51.6c8.5-5.4,17.4-10.9,17-11.6
		c-0.7-1.4-14.5,1.5-15.2-0.6s24.4-20.4,23.7-22.1c-0.7-1.7-8.2-0.7-8.5-2C454.8,25,460.3,20.3,466.3,15.1z"/>
	<path class="st1" d="M296.4,320.4c-6.3-5.9-13.5-12.1-14.2-14.8c-0.7-3,4.1-15.7,6.7-15.7c1.2,0,4.2,0.3,7.5,0.8v-179l0,0
		c-3.5-2.3-2.3-9.6-3.1-16c-0.8-6.4-1.6-16.7-7.5-21.7c-4.3-3.6-11.3-6.3-17.7-7.9v331.7l2.3,2.4v-4.6c2.6-3.8,4.7-18.7,4.7-18.7
		s9.3,10.5,12.3,8.6s3-19.9,3-19.9s2.8,1.9,6,3.8L296.4,320.4L296.4,320.4z"/>
	<polygon class="st1" points="352.5,342.5 348.5,346.4 353,349.3 353,333.7 345.2,339.4 	"/>
	<path class="st1" d="M466.3,221.3l-11.5,10.2l11.5-17.7v-24.2l-2.6,2.8l2.5,0.4l-6.2,7.1l0.2-6.2l-5.1,3.5l11.2-26.5v-11.8
		l-7.4,9.3h3.1l-8.2,19.9l-0.1-15.1l-11.3,13.8l3.3,2.2l-6.9,18.7l-0.8-7v76.9c10-8.3,21.1-17.6,28.3-23.6v-5.6l-14.5,9.6l14.5-14.1
		V221.3z"/>
	<path class="st1" d="M441.5,107.1c0-0.9-1.5-1.4-3.5-1.8v5.3C439.9,109.3,441.5,108.1,441.5,107.1z"/>
	<path class="st1" d="M409.7,274.7l-1,5.2c-0.1-0.1-0.1-0.1-0.2-0.2c-3.2-2.8-10-8.3-14.5-5.8s-4,14.6-4,14.6s-4.1-0.1-8.6-0.3v12.6
		c5.1,0.1,9.4,0.3,9.4,0.3s-0.1,3.3,0.6,7l-10,9.9v49.7l2.9-1.1l1.5,3.9l3.2-2.9l0.8,7.3l9.2-3.1l-0.8,3.6l3.7-1.7l1.8,3.9l1.5-2.9
		l2.4,0.8c0,0,0.3-36.3,0.4-55.1l0,0c0.2-0.8,0.8-1.6,1.6-2.5v-43.2H409.7z"/>
	<path class="st1" d="M215.7,94.5c1-0.3,0.8-5,4.7-6.2c3.8-1.3,7.3,1.6,15.7,4.4c1.4,0.5,2.6,0.8,3.7,1v-26c-3,0.3-6.5,0.5-10.2,0.7
		c-6.9,0.3-13.1,4.8-15.7,10.8C211.4,85.2,214.8,94.8,215.7,94.5z"/>
	<polygon class="st1" points="494.6,195.3 494.6,204.2 500,192.1 	"/>
	<path class="st1" d="M353,303.4V269c-4.3-4.5-8.7-8.8-10-10.2c-2.4-2.7-11.7-10.9-18-13.5c-0.1,0-0.2-0.1-0.3-0.1v57.4
		c3.2,1.2,6.5,2.2,9.3,2.4C339.1,305.2,346.3,304.4,353,303.4z"/>
	<path class="st1" d="M239.8,113.1c-3.7,5.5-11.3,15.4-14.3,18.9c-3.5,4.2-7.8,16.4-11.1,16.9c-1,0-2,0-3,0v144
		c3.9-1.7,14.7-3,17.2-3c2.6,0,7.5,12.7,6.7,15.7c-0.7,3-9.7,10.5-16.4,16.9c-2.3,2.2-5,6.1-7.5,10.4v19.6c2.6-0.3,4.8-0.7,4.8-0.7
		s-6.3,17.2-4.5,20.2c1.9,3,15.3-6.4,15.3-6.4s0,18,3,19.9c2,1.2,6.7-2.9,9.7-5.9V113.1H239.8z"/>
	<path class="st1" d="M444.3,91.2c0-0.7-2.9-0.9-6.3-1v5.4C441.4,93.7,444.3,91.9,444.3,91.2z"/>
	<path class="st1" d="M442.2,121.8c0-0.7-1.9-1.4-4.2-2.1v5.2C440.4,123.5,442.2,122.4,442.2,121.8z"/>
	<path class="st1" d="M444.2,73.8c-0.1-0.8-2.8-0.9-6.2-0.7v6.2C441.4,76.9,444.3,74.8,444.2,73.8z"/>
	<path class="st1" d="M381.3,210.3c3.8,1.4,8.6,3.5,9.4,2.4c1.2-1.7-4.7-13.3-3.2-15.4c1.5-2.1,13.9,3.8,16.1-0.1
		c2.2-3.9-8.5-11.2-8.5-12.6c0-1,9,0,14.6,0V179c-3-2.7-6.5-5.6-6.3-6.4c0.2-0.5,2.9-0.7,6.3-0.8v-12.4c-0.2-0.3-0.2-0.5-0.2-0.6
		s0.1-0.2,0.2-0.2v-131c-9.5,6.1-19.4,12.9-28.3,19.2v163.5H381.3z"/>
</g>
<g>
	<path class="st2" d="M31.8,211.4l-4.4,7.7c0,0-5-1.7-8.3-1.9s-12.9-1-13.5,1c-0.6,2.1,14,12.6,14,12.6s-4.2,2.7-6.5,5.2
		s-3.8,6.3-3.8,6.3s8.5-0.2,12.1,1.7c3.5,1.9,7.3,15.1,6.9,16.5c-0.4,1.5-9.2,4.8-8.8,6.5c0.4,1.7,20.2,4.8,20.4,7.3
		c0.2,2.5-12.3,11.5-11.9,13s9.6,2.5,15.4,2.1s14.6-5.7,15.2-3.6c0.6,2.1-10.4,25.3-8.8,27c1.7,1.7,10.4-5.2,12.1-4
		c1.7,1.3,3.5,15.9,4.8,16.1s7.7-4.4,10.6-9.6s3.3-31.2,5.6-33.9c2.3-2.7,7.7-2.3,10-0.4c0.5,0.4,2.4,2.2,5,4.8
		c-4,2-7.7,3.9-9.1,4.8c-2.9,2-1.7,7.4-0.2,9s6,4.9,6.2,8.8s5,6.1,7.9,6.7c3,0.6,5.9,3.5,6.5,5.4c0.6,2,10.7-0.7,14.2-5.4
		c0.6-0.8,1-1.6,1.4-2.6c1.6,1.6,2.8,2.9,3.6,3.6c4.8,5,6.9,13,7.3,17c0.4,4,0.3,16.1,6.5,17.6c1.9,0.5,3.2,0.6,5.4-0.9
		s3.8-4.7-7.4-25.5c-4.4-8.1-9.2-14.7-13.5-20c0.2-2,0.1-3.4,0.1-3.4s16-0.7,22.8,0s24.2,4.5,33.9,3.7c9.7-0.7,24.2-9.7,27.2-11.6
		c0.2-0.1,0.5-0.3,0.7-0.4v-144c-5,0-8.5,0.1-9.3,0.4c-4.1,1.5-0.4,9-4.5,11.2s-17.5-4.1-24.6-11.6s-9.3-25.1-8.2-30.4
		c1.1-5.2,12.7-4.9,15.3-15.4s-5.2-22.9-16.4-34.9S93.6,16.2,74.2,7.2S35.8-0.3,35.8-0.3c-0.9,2.2,27.1,24.2,26.7,25.5
		c-0.3,1.3-7.8,0.2-8.5,2c-0.7,1.7,24.4,20,23.7,22.1c-0.7,2.1-14.5-0.8-15.2,0.6S94.8,70,94.4,72.5c-0.3,2.4-20.7-1.3-21.1,1
		c-0.3,2.3,18.3,12.4,18,14.7c-0.3,2.3-18,0.9-18.1,2.7c-0.1,1.7,16.5,9,16.5,11.5c0,2.4-13.7,1.7-13.7,4.4c0,2.7,10.8,6.9,11.1,9.1
		c0.2,2.2-11.7,3.8-11.7,5.6c0,1.7,15.8,8.5,16,10.4c0.2,2-10,5.6-9.8,7.3s15.3,3.4,16.1,6.6s-9.8,6.7-9.3,8.2s19.1,2.4,19.7,4.4
		s-13.5,9.3-12.7,11.5s18.3,1,18.8,2.4s-11.3,9.7-10.6,11.5c0.7,1.7,18.9-0.8,18.9,0.6s-10.7,8.7-8.5,12.6c2.2,3.9,14.6-2,16.1,0.1
		s-4.4,13.7-3.2,15.4c1.2,1.7,12.6-4.5,13.7-3.4c1.2,1.2-1.4,11.1,0,12.3s15.8-7.6,16.7-7.1c0.9,0.6-0.6,14.4,0.8,14.9
		s12.2-8.9,13-8.6c0.8,0.3-0.3,13.5,1.4,14.6c1.7,1,11.4-8.7,13-8.5s4.3,13,6,13.5c1.7,0.6,8.5-6.3,9.8-3.9c1.3,2.3-2.5,5.8-8.8,8.5
		c-6.2,2.7-15.6,10.9-18,13.5c-2.4,2.7-15.2,14.8-18.4,20.1s-5.4,7.1-9.2,8.2c-3.8,1.2-19.2,1.4-19.2,1.4s0.5-12-4-14.6
		c-4.5-2.5-11.3,3-14.5,5.8c-0.8,0.7-2.3,1.6-4.2,2.7c-4.7-4.3-9.6-8.7-9.6-8.7s2.9,0.6,3.8-3.4c1-4-2.5-6-2.3-7s3.4-2.3,9.4-6.7
		c6-4.4,8.5-14.7,10.2-20.2s6.1-11.4,5.9-12.1c-0.2-0.7-6.5,1.2-10.1,3c-3.5,1.8-10.7,8.5-12.3,7.7c-1.6-0.7-0.2-6.2-0.2-8.7
		c-0.1-2.5-1.6-14.1-2.4-14.4c-0.8-0.2-5.3,5.3-9.4,12.1c-4.1,6.7-7.9,24.5-9.1,25.1c-1.1,0.7-3.1-3.1-3.7-3.9
		c-0.6-0.7,1.9-6.3,2.6-13.7s-0.7-23.7-1.1-23.9s-3.4,2.8-6.9,6.8s-6.4,13.5-6.5,14.7s-7.7,5.9-9.5,5.3c-1.8-0.6-1.7-7.2-1.7-7.2
		s7.4-5.3,7.9-10.2s-5.4-5.6-6.3-7.2c-0.9-1.6,7.8-5.3,10.6-12.6c2.9-7.3,1.5-18.5,0.9-18.7s-3.8,5-7.5,5.7
		c-3.8,0.6-7.1,6.5-8.8,6.5s-6.5-4.8-6.5-4.8s7.5-8,9.4-11.3S52.4,167,52,162c-0.4-5,3.5-11.3,2.9-12.6s-3.8,2.7-7.5,6.7
		c-3.8,4-7.1,12.8-7.1,12.8s-2.7-5.4-3.5-8.6c-0.8-3.1-5-6.3-7.5-9C26.8,149,26,140,23.9,140s-4,17.6-3.5,28.3
		c0.4,10.7,10.6,18,12.7,19.7s4.6,7.3,1.5,8.6s-5.2-3.8-8.3-6.1s-11-4.6-16-6.7c-5-2.1-7.5-7.3-9.6-6.7s1.5,13.8,8.1,23.7
		C15.4,210.5,31.8,211.4,31.8,211.4z"/>
	<path class="st2" d="M211.5,332.8c-4.8,8.3-8.9,18-8.2,19.2c0.6,1.1,4.8,0.8,8.2,0.4V332.8z"/>
</g>
<path class="st0" d="M99,38.1l-5.7-0.8L90.7,32l-2.6,5.3l-5.8,0.8l4.2,4.1l-1,5.8l5.2-2.7l5.1,2.7l-0.9-5.8L99,38.1z M104.8,64.7
	l5.1-2.7l5.2,2.7l-1-5.8l4.2-4.1l-5.8-0.8l-2.6-5.3l-2.6,5.3l-5.7,0.8l4.1,4.1L104.8,64.7z M128.8,80.1l5.1-2.8l5.2,2.8l-1-5.8
	l4.2-4.1l-5.8-0.8l-2.6-5.3l-2.6,5.3l-5.7,0.8l4.1,4.1L128.8,80.1z M148,100.6l5.2-2.7l5.1,2.7l-1-5.7l4.2-4.1l-5.8-0.9l-2.5-5.2
	l-2.6,5.2l-5.8,0.9l4.2,4.1L148,100.6z M114,82.1l-2.6-5.3l-2.6,5.3l-5.7,0.8l4.1,4.1l-0.9,5.8l5.1-2.7l5.2,2.7l-1-5.8l4.2-4.1
	L114,82.1z M125.3,111.2l5.2-2.7l5.2,2.7l-1-5.8l4.2-4.1l-5.8-0.8l-2.6-5.3l-2.6,5.3l-5.7,0.8l4.1,4.1L125.3,111.2z M109.2,113.1
	l4.2-4.1l-5.8-0.9l-2.6-5.2l-2.6,5.2l-5.8,0.9l4.2,4.1l-1,5.8l5.2-2.8l5.2,2.8L109.2,113.1z M143.1,124.3l-1,5.8l5.2-2.7l5.2,2.7
	l-1-5.8l4.1-4.1l-5.7-0.8l-2.6-5.3l-2.6,5.3l-5.8,0.8L143.1,124.3z M122.4,136.4l4.2-4.1l-5.8-0.9l-2.6-5.2l-2.5,5.2l-5.8,0.9
	l4.2,4.1l-1,5.8l5.1-2.8l5.2,2.8L122.4,136.4z M134.2,160l4.2-4.1l-5.8-0.9l-2.6-5.2l-2.6,5.2l-5.7,0.9l4.1,4.1l-0.9,5.7l5.1-2.7
	l5.2,2.7L134.2,160z M145.8,178.3l-2.6-5.2l-2.5,5.2l-5.8,0.9l4.2,4.1l-1,5.7l5.1-2.7l5.2,2.7l-1-5.7l4.2-4.1L145.8,178.3z
	 M165.3,171.9l-1,5.8l5.1-2.8l5.2,2.8l-1-5.8l4.2-4.1L172,167l-2.6-5.3l-2.5,5.3l-5.8,0.8L165.3,171.9z M191.6,188.5l5.1-2.7
	l5.2,2.7l-1-5.8l4.2-4.1l-5.8-0.8l-2.6-5.3l-2.6,5.3l-5.7,0.8l4.1,4.1L191.6,188.5z M169,204.4l5.2,2.7l-1-5.7l4.2-4.1l-5.8-0.9
	l-2.6-5.2l-2.6,5.2l-5.7,0.9l4.1,4.1l-0.9,5.7L169,204.4z M192.4,218.1l5.1-2.7l5.2,2.7l-1-5.8l4.2-4.1l-5.8-0.8l-2.6-5.3l-2.5,5.3
	l-5.8,0.8l4.2,4.1L192.4,218.1z M206.3,267.2l-5.7-0.9l-2.6-5.2l-2.6,5.2l-5.8,0.9l4.2,4.1l-1,5.7l5.2-2.7l5.1,2.7l-0.9-5.7
	L206.3,267.2z M177.7,281.6l-2.6-5.2l-2.6,5.2l-5.8,0.9l4.2,4.1l-1,5.7l5.2-2.7l5.1,2.7l-0.9-5.7l4.1-4.1L177.7,281.6z M162.9,146.7
	l-5.8-0.9l-2.6-5.2l-2.6,5.2l-5.7,0.9l4.1,4.1l-0.9,5.8l5.1-2.8l5.2,2.8l-1-5.8L162.9,146.7z"/>
</svg>
