<svg id="Layer_1" data-name="Layer 1" xmlns="http://www.w3.org/2000/svg" viewBox="0 0 25 25"><defs><style>.cls-1{fill:#d6d6d6;}</style></defs><path class="cls-1" d="M25,1.39h0a1.6,1.6,0,0,0-.23-.54l0-.06,0,0L24.57.66l0,0s0,0,0,0l-.05,0s0,0-.05-.05l0,0-.06,0-.05,0h0L24.12.27h0l-.06,0L23.92.16l-.05,0A1.87,1.87,0,0,0,23.16,0H1.84A1.84,1.84,0,0,0,.45.63l0,0a1.67,1.67,0,0,0-.25.4l0,0A1.77,1.77,0,0,0,0,1.84V23.16a1.88,1.88,0,0,0,.56,1.33l.07.06a1.82,1.82,0,0,0,.41.27l0,0h0l0,0h0l0,0,.13,0,.05,0h0a1.75,1.75,0,0,0,.4.05H23.21a1.5,1.5,0,0,0,.37-.05h0a1.63,1.63,0,0,0,.53-.21h0a1.72,1.72,0,0,0,.59-.58v0a1.73,1.73,0,0,0,.22-.5h0a1.7,1.7,0,0,0,.06-.46V1.84A2.22,2.22,0,0,0,25,1.39ZM17.6,15.13a5.37,5.37,0,0,0-.17-1.49,2.25,2.25,0,0,0-.08-.24A1.55,1.55,0,0,0,16,12.35a2.88,2.88,0,0,0-1,.05,1.74,1.74,0,0,0-1.31,1.12,3.76,3.76,0,0,0-.25,1.15q0,.42,0,.84v5.74H9.78V9.39h3.51v1.72a1.9,1.9,0,0,1,.17-.27,3.89,3.89,0,0,1,1.8-1.48,4,4,0,0,1,1.52-.27,6.34,6.34,0,0,1,1.57.16,3.35,3.35,0,0,1,2.48,2.18,6.44,6.44,0,0,1,.4,1.89c0,.58.06,1.17.06,1.76v6.17H17.6Zm-12-7.39A2.15,2.15,0,1,1,7.71,5.6,2.15,2.15,0,0,1,5.56,7.74ZM7.39,21.25H3.76V9.39H7.38Z"/></svg>