<?xml version="1.0" encoding="utf-8"?>
<!-- Generator: Adobe Illustrator 26.0.3, SVG Export Plug-In . SVG Version: 6.00 Build 0)  -->
<svg version="1.1" id="Layer_1" xmlns="http://www.w3.org/2000/svg" xmlns:xlink="http://www.w3.org/1999/xlink" x="0px" y="0px"
	 viewBox="0 0 100 100" style="enable-background:new 0 0 100 100;" xml:space="preserve">
<style type="text/css">
	.st0{fill:#EEE2E5;}
</style>
<g>
	<path class="st0" d="M97.6,50.4l2.4-2.5l-2.6-2.3l2.2-2.7l-2.9-2l1.9-2.9l-3-1.7l1.6-3.1L94,31.8l1.2-3.3l-3.3-1.1l0.9-3.4
		l-3.4-0.7l0.6-3.4l-3.5-0.4l0.2-3.5h-3.5l-0.1-3.5l-3.5,0.3l-0.5-3.5L75.7,10l-0.8-3.4l-3.3,1l-1.2-3.3l-3.2,1.4l-1.5-3.1l-3.1,1.7
		l-1.8-3l-2.9,2l-2.1-2.8l-2.7,2.3L50.4,0L48,2.5l-2.6-2.3L43.2,3l-2.9-2l-1.9,2.9l-3-1.7l-1.6,3.1l-3.2-1.4l-1.2,3.3l-3.3-1.1
		l-0.9,3.4l-3.4-0.7l-0.6,3.4l-3.5-0.4l-0.2,3.5H14l0.1,3.5l-3.5,0.3l0.5,3.5l-3.4,0.7l0.8,3.4l-3.3,1L6.4,31l-3.2,1.4l1.5,3.1
		l-3.1,1.7l1.8,3l-2.9,2L2.6,45L0,47.1l2.4,2.6L0,52.1l2.6,2.3l-2.2,2.7l2.9,2L1.4,62l3,1.7L2.9,67l3.2,1.4l-1.2,3.3l3.3,1.1
		l-0.9,3.4l3.4,0.7l-0.6,3.4l3.5,0.4l-0.2,3.5h3.5l0.1,3.5l3.5-0.3l0.5,3.5l3.4-0.7l0.8,3.4l3.3-1l1.2,3.3l3.2-1.4l1.5,3.1l3.1-1.7
		l1.8,3l2.9-2l2.1,2.8l2.7-2.3l2.4,2.6l2.4-2.5l2.6,2.3l2.2-2.7l2.9,2l1.9-2.9l3,1.7l1.6-3.1l3.2,1.4l1.2-3.3l3.3,1.1l0.9-3.4
		l3.4,0.7l0.6-3.4l3.5,0.4l0.2-3.5h3.5l-0.1-3.5l3.5-0.3l-0.5-3.5l3.4-0.7l-0.8-3.4l3.3-1l-1.2-3.3l3.2-1.4l-1.5-3.1l3.1-1.7l-1.8-3
		l2.9-2l-2.1-2.8l2.7-2.3L97.6,50.4z M50,95.5C24.8,95.5,4.5,75.1,4.5,50S24.8,4.5,50,4.5S95.5,24.9,95.5,50S75.2,95.5,50,95.5z"/>
	<path class="st0" d="M32,24.2C23.8,29.9,18.5,39.3,18.5,50c0,12.6,7.4,23.5,18.2,28.5v-0.3c0-0.8,0.4-1.5,1-2v-0.1
		c-9.8-4.6-16.5-14.5-16.5-26c0-8.1,3.3-15.4,8.7-20.6C30.3,27.6,31,25.8,32,24.2z"/>
	<path class="st0" d="M50.4,81.5C67.6,81.3,81.5,67.3,81.5,50c0-6-1.7-11.6-4.6-16.4c0.2,1.9,0.1,3.7-0.2,5.6
		c1.3,3.3,2.1,7,2.1,10.8c0,15.8-12.7,28.6-28.4,28.8l-0.1,0.1c0.4,0.7,0.4,1.6,0.1,2.3V81.5z"/>
	<path class="st0" d="M31.9,30.7C29.8,40.1,33.4,57.1,41,64c0.5,0.5,1,0.5,1.2,0c-5.1-16.1-1.8-27.7,1.5-35.7
		c2.3-5.5,5.2-9.7,7.5-12.4c0.4-0.4,0.3-1,0-1.3l0,0l0.4-1.4l1.9,0.1l0.2,1.4l1.2,0.1c-2.1,2.1-6.2,6.9-9.3,14.2
		c-3.3,7.8-6.1,20.6-0.7,36.5l0,0c0.2,0.6,0.7,1.1,1.4,1.2c0.1,0,0.1,0,0.2,0h0.1c0.6,0.1,1.3-0.1,1.7-0.6l0,0
		c11.5-12.3,14.3-25,14.5-33.5c0.3-7.8-1.4-13.9-2.5-16.7l0.4,0.1l0.5-1.1l-2.5-0.6l1.3-5l-1.5-0.4l-1.3,5.3c-0.2,0-0.3-0.1-0.5-0.1
		c-0.5-0.1-1,0-1.4,0.4l-1.4-6.2L52,8.2l-2.3,6.2C41.3,15.8,33.8,21.9,31.9,30.7z M52.8,9.3l0.5,2.9l-1.4-0.1L52.8,9.3z"/>
	<path class="st0" d="M40.4,71.1c-0.3,0-0.6,0.3-0.6,0.6l0.1,5.1c0,0.3,0.2,0.5,0.5,0.6c0,0,0,0,0.1,0c0.3,0,0.6-0.3,0.6-0.6
		L41,71.6C41,71.3,40.7,71.1,40.4,71.1z"/>
	<path class="st0" d="M50,73.2c-0.3-0.1-0.6,0-0.8,0.3L47.1,78c-0.1,0.3,0,0.6,0.3,0.8c0.1,0,0.1,0,0.2,0.1c0.2,0,0.5-0.1,0.6-0.3
		l2.2-4.6C50.4,73.6,50.3,73.3,50,73.2z"/>
	<path class="st0" d="M50.9,72.1c0.2,0,0.4-0.2,0.4-0.4l0.8-3.7c-2.1,0.7-4,0.3-6-0.1s-3.9-0.9-5.5-2.4l-0.8,3.7
		c0,0.2,0.1,0.4,0.2,0.5c0.8,0.4,2.9,1.4,5.3,2C47.7,72.3,50.1,72.2,50.9,72.1z"/>
	<path class="st0" d="M48,79.7c-1,0-2.9-0.1-4.3-0.4c-1.4-0.3-3.1-1-4.1-1.4c-0.3-0.1-0.7,0.1-0.7,0.4l-0.2,5.5c0,0.1,0,0.3,0.2,0.4
		c0.2,0.2,0.8,0.6,1.6,1c-0.1,0.1-0.3,0.3-0.4,0.5c-0.3,0.5-0.6,1-0.7,1.7c-0.2,1.1-0.1,1.9,0.3,2.6c0.4,0.7,1,1.1,1.9,1.3
		c0.6,0.1,1.1,0.1,1.6-0.1s0.9-0.5,1.2-0.9c0.3-0.5,0.6-1,0.7-1.7c0.1-0.7,0.2-1.3,0-1.9C45,86.4,45,86.2,44.8,86
		c0.6,0,1-0.2,1.2-0.2c0.1,0,0.2-0.1,0.3-0.3l2.1-5.1C48.6,80,48.3,79.7,48,79.7z M43.5,88.1c-0.2,0.8-0.4,1.3-0.7,1.6
		c-0.3,0.3-0.6,0.4-1.1,0.3c-0.4-0.1-0.7-0.3-0.9-0.7c-0.1-0.4-0.1-1,0-1.8c0.2-0.8,0.4-1.3,0.7-1.6c0.1-0.2,0.3-0.3,0.5-0.3
		c0.1,0,0.1,0,0.2,0.1c0.3,0.1,0.6,0.1,0.9,0.1c0.2,0.1,0.3,0.3,0.4,0.5C43.7,86.7,43.7,87.3,43.5,88.1z"/>
	<path class="st0" d="M64.6,32.9c-0.3,8.7-2.2,20.5-13.5,33.1c-0.1,0.6,0.4,0.7,1,0.5c9.8-3.2,20.1-17.1,22.2-26.6
		c1.9-8.9-2.6-17.9-9.8-22.5c-0.8-0.5-1.8,0.2-1.6,1.2C63.9,22,64.8,26.9,64.6,32.9z"/>
	<path class="st0" d="M44.5,73.1l-1,4.5c-0.1,0.3,0.1,0.6,0.4,0.7H44c0.3,0,0.5-0.2,0.6-0.4l1-4.5c0.1-0.3-0.1-0.6-0.4-0.7
		C44.8,72.6,44.5,72.8,44.5,73.1z"/>
	<path class="st0" d="M18.8,27c0.5,0.5,1.1,0.8,1.6,0.9c0.5,0.2,1.1,0.2,1.5,0c0.5-0.2,0.9-0.5,1.3-0.9c0.4-0.5,0.6-0.9,0.7-1.5
		c0.1-0.5,0-1-0.2-1.5s-0.6-1-1.2-1.5c-0.8-0.7-1.6-1.1-2.4-1c-0.8,0-1.5,0.4-2.1,1.1c-0.4,0.5-0.6,0.9-0.7,1.5
		c-0.1,0.5,0,1,0.2,1.5C17.8,26.1,18.2,26.6,18.8,27z M18.9,23.3c0.3-0.3,0.6-0.5,1.1-0.4c0.4,0.1,0.9,0.4,1.5,0.9s1,1,1.1,1.4
		s0.1,0.8-0.2,1.1c-0.3,0.3-0.6,0.5-1.1,0.4c-0.4-0.1-0.9-0.4-1.5-0.9s-1-1-1.1-1.4C18.6,24,18.6,23.7,18.9,23.3z"/>
	<polygon class="st0" points="27.8,22.4 26.2,20.4 27.7,19.2 27,18.4 25.5,19.6 24.4,18.2 26.1,16.9 25.6,15.9 22.5,18.3 26.6,23.4 
			"/>
	<polygon class="st0" points="32.5,19.2 31.2,17 32.9,16.1 32.3,15.1 30.7,16 29.8,14.5 31.7,13.5 31.3,12.4 28,14.3 31.2,20 	"/>
	<rect x="35" y="10.8" transform="matrix(0.9299 -0.3678 0.3678 0.9299 -2.6685 14.1356)" class="st0" width="1.5" height="6.5"/>
	<path class="st0" d="M39.7,14.6c0.4,0.4,0.8,0.7,1.3,0.9s1,0.2,1.6,0c0.4-0.1,0.8-0.3,1.1-0.5s0.5-0.5,0.7-0.8l-0.9-0.7
		c-0.2,0.2-0.4,0.4-0.5,0.5c-0.2,0.1-0.4,0.2-0.6,0.3c-0.4,0.1-0.8,0-1.2-0.3c-0.3-0.3-0.6-0.8-0.7-1.6c-0.2-0.7-0.2-1.3,0-1.7
		S41,10,41.4,9.9c0.2,0,0.4-0.1,0.6,0c0.2,0,0.4,0.1,0.6,0.2l0.5-1c-0.3-0.2-0.7-0.3-1-0.3s-0.7,0-1.1,0.1c-0.6,0.1-1,0.4-1.4,0.7
		C39.3,10,39,10.5,38.9,11c-0.1,0.6-0.1,1.2,0,1.9C39.1,13.6,39.3,14.2,39.7,14.6z"/>
	
		<rect x="46.1" y="8.2" transform="matrix(0.9968 -7.948361e-02 7.948361e-02 0.9968 -0.7621 3.7597)" class="st0" width="1.5" height="6.5"/>
	<path class="st0" d="M68.4,16.9l0.5,0.3L68.8,20l1.5,0.9v-3.2c0.5,0,0.9,0,1.2-0.1c0.3-0.1,0.6-0.4,0.8-0.8
		c0.3-0.6,0.4-1.1,0.2-1.6c-0.2-0.5-0.7-1-1.5-1.4l-1.8-1.1l-3.3,5.6l1.3,0.8L68.4,16.9z M69.8,14.3l0.5,0.3
		c0.3,0.2,0.5,0.4,0.6,0.6c0.1,0.2,0.1,0.5-0.1,0.7c-0.2,0.3-0.4,0.5-0.6,0.5s-0.5,0-0.8-0.2l-0.6-0.3L69.8,14.3z"/>
	<polygon class="st0" points="74.7,24.5 75.4,23.7 73.5,22.1 74.6,20.8 76.1,22.1 76.8,21.3 75.3,20 76.3,18.8 78,20.3 78.9,19.6 
		75.9,17 71.6,21.9 	"/>
	<path class="st0" d="M76.1,26l1.2,1.5c0.6,0.7,1.3,1.2,2,1.4c0.8,0.2,1.6-0.1,2.5-0.9c1-0.8,1.4-1.5,1.4-2.3s-0.4-1.5-1-2.3
		L81.1,22L76.1,26z M81.6,24.2c0.2,0.3,0.3,0.5,0.4,0.8c0.1,0.2,0,0.5-0.2,0.8s-0.5,0.6-0.9,1c-0.6,0.5-1.2,0.8-1.6,0.8
		s-0.8-0.2-1.1-0.6l-0.3-0.4l3.3-2.7L81.6,24.2z"/>
	<path class="st0" d="M81.4,33.6c0.4,0.8,0.9,1.3,1.3,1.7c0.5,0.3,1,0.3,1.6,0c0.4-0.2,0.7-0.5,0.8-0.9c0.1-0.4,0.1-0.7-0.1-1.2
		c0.2,0.3,0.5,0.4,0.8,0.5s0.6,0.1,1-0.1c0.5-0.3,0.8-0.7,0.8-1.2s-0.2-1.2-0.6-2l-0.8-1.6l-5.8,3L81.4,33.6z M85.9,30.6l0.2,0.4
		c0.2,0.3,0.3,0.6,0.2,0.8c0,0.2-0.1,0.4-0.4,0.5c-0.5,0.2-0.8,0.1-1.1-0.5l-0.3-0.5L85.9,30.6z M83.7,31.8l0.3,0.6
		c0.3,0.7,0.3,1.1-0.3,1.4c-0.3,0.2-0.5,0.2-0.7,0c-0.2-0.1-0.4-0.4-0.6-0.7l-0.3-0.5L83.7,31.8z"/>
	<path class="st0" d="M83.6,38.7l1.4-0.1l0.5,1.8l-1.2,0.7l0.5,1.6l5.7-3.7L90,37.2h-6.8L83.6,38.7z M89.1,38.4l-2.6,1.5l-0.4-1.3
		L89.1,38.4z"/>
	<polygon class="st0" points="85.4,48.2 86.7,48.2 86.4,45.7 91.6,45.1 91.5,43.6 85,44.3 	"/>
	<polygon class="st0" points="85.2,54.1 86.5,54.4 86.6,51.8 91.9,52.1 91.9,50.6 85.5,50.2 	"/>
	<path class="st0" d="M90,57c-0.4-0.3-1-0.6-1.7-0.8S87,56,86.4,56.1c-0.5,0.1-1,0.3-1.4,0.7s-0.6,0.8-0.8,1.4
		c-0.1,0.6-0.1,1.1,0,1.6c0.2,0.5,0.5,0.9,0.9,1.3c0.4,0.3,1,0.6,1.7,0.8c1.1,0.3,1.9,0.2,2.6-0.2s1.2-1,1.4-1.9
		c0.1-0.6,0.1-1.1,0-1.6C90.7,57.8,90.4,57.4,90,57z M89.8,59.6c-0.1,0.4-0.4,0.7-0.8,0.8s-1,0.1-1.8-0.1c-0.8-0.2-1.3-0.4-1.6-0.7
		c-0.3-0.3-0.4-0.7-0.3-1.1c0.1-0.4,0.4-0.7,0.8-0.8s1-0.1,1.8,0.1c0.8,0.2,1.3,0.4,1.6,0.7C89.8,58.8,89.9,59.2,89.8,59.6z"/>
	<path class="st0" d="M87.6,65.3c-0.4-0.4-0.9-0.8-1.5-1.1c-0.6-0.3-1.2-0.5-1.8-0.5c-0.6,0-1.1,0.1-1.5,0.4s-0.8,0.7-1,1.2
		c-0.3,0.5-0.4,1.1-0.3,1.6s0.3,1,0.6,1.4c0.4,0.4,0.9,0.8,1.5,1.1c1,0.5,1.8,0.6,2.6,0.4c0.8-0.2,1.3-0.7,1.7-1.6
		c0.3-0.5,0.4-1.1,0.3-1.6C88.2,66.2,87.9,65.7,87.6,65.3z M86.9,67.8c-0.2,0.4-0.5,0.6-0.9,0.7c-0.4,0-1-0.1-1.7-0.5
		s-1.2-0.7-1.4-1.1c-0.2-0.3-0.2-0.7-0.1-1.1c0.2-0.4,0.5-0.6,0.9-0.6s1,0.1,1.7,0.5c0.7,0.3,1.2,0.7,1.4,1
		C87.1,67,87.1,67.4,86.9,67.8z"/>
	<path class="st0" d="M78.7,70.8l1.9,1.5c0.4,0.3,0.8,0.6,1.1,0.8c0.3,0.2,0.7,0.4,1.1,0.7l-5.1-1.6l-1.2,1.5l5.1,4l0.8-1.1L80.3,75
		c-0.6-0.5-1.3-0.9-2-1.3l5.2,1.6l1.2-1.5l-5.1-4L78.7,70.8z"/>
	<path class="st0" d="M74.2,80.6c-0.4-0.1-1,0-1.7,0.2c-0.3,0.1-0.6,0.2-0.8,0.2c-0.2,0-0.3,0-0.5,0c-0.1,0-0.2-0.1-0.3-0.3
		c-0.1-0.2-0.2-0.4-0.1-0.6s0.2-0.4,0.5-0.6s0.5-0.3,0.8-0.4S72.7,79,73,79l0.1-1.1c-0.4-0.1-0.8,0-1.2,0.1
		c-0.4,0.1-0.9,0.3-1.3,0.6c-0.4,0.3-0.8,0.6-1,1s-0.3,0.7-0.3,1.1s0.1,0.7,0.4,1.1c0.3,0.5,0.7,0.7,1.1,0.8c0.4,0.1,1,0,1.6-0.2
		c0.4-0.1,0.6-0.2,0.8-0.2c0.2,0,0.3,0,0.4,0s0.2,0.1,0.3,0.2c0.1,0.2,0.1,0.3,0.1,0.5c-0.1,0.2-0.2,0.3-0.4,0.5
		c-0.4,0.3-0.9,0.4-1.5,0.4L72,84.9c0.4,0.1,0.8,0,1.2-0.1s0.8-0.3,1.2-0.6c0.4-0.3,0.6-0.6,0.9-0.9c0.2-0.3,0.3-0.7,0.3-1
		s-0.1-0.7-0.3-1C74.9,81,74.6,80.7,74.2,80.6z"/>
	<polygon class="st0" points="63.2,82.9 63.7,83.9 65.9,82.9 66.6,84.4 64.8,85.2 65.3,86.2 67.1,85.3 67.8,86.7 65.7,87.7 66,88.8 
		69.6,87.1 66.8,81.2 	"/>
	<path class="st0" d="M60.5,85.3l-1.8,0.5L58,84.5l-1.6,0.4l3.6,5.8l1.8-0.5l0.2-6.8l-1.5,0.4V85.3z M60.6,89.4l-1.4-2.6l1.3-0.4
		L60.6,89.4z"/>
	<polygon class="st0" points="50.9,85.4 50.9,86.7 53.4,86.5 53.8,91.7 55.4,91.6 54.8,85.1 	"/>
	<polygon class="st0" points="35.7,85.2 33.9,84.5 33.5,85.5 35.3,86.2 34.6,87.8 32.6,87 32,87.9 35.6,89.4 38.1,83.4 36.7,82.8 	
		"/>
	<path class="st0" d="M28.1,79.6l-1.5-1.2l0.6-1.3l-1.3-1l-2.5,6.3l1.5,1.1l5.5-3.9l-1.3-1L28.1,79.6z M24.9,82.2l1.2-2.7l1.1,0.8
		L24.9,82.2z"/>
	<path class="st0" d="M23.8,73.8l-1.6,1.4l-0.5-0.5c-0.5-0.6-1.1-0.9-1.7-1s-1.2,0.1-1.7,0.6s-0.8,1-0.7,1.6c0,0.6,0.4,1.2,0.9,1.9
		l1.4,1.6l4.9-4.3L23.8,73.8z M19.8,77.4L19.4,77c-0.5-0.6-0.5-1.1,0-1.5c0.3-0.3,0.6-0.4,0.8-0.3c0.3,0,0.5,0.2,0.7,0.5l0.4,0.4
		L19.8,77.4z"/>
	<path class="st0" d="M19.8,68.5l-1.9,1.1L17.6,69c-0.4-0.7-0.9-1.1-1.4-1.3c-0.6-0.2-1.1-0.1-1.8,0.2c-0.6,0.4-0.9,0.8-1,1.4
		s0.1,1.3,0.6,2l1.1,1.8l5.6-3.3L19.8,68.5z M15.1,71.2l-0.3-0.5c-0.4-0.7-0.3-1.2,0.3-1.5c0.3-0.2,0.6-0.3,0.9-0.2
		c0.2,0.1,0.5,0.3,0.6,0.6l0.3,0.5L15.1,71.2z"/>
	<path class="st0" d="M16.8,62.4l-2.3,0.8l-0.2-0.6l1.9-2.1L15.6,59l-2.1,2.5c-0.3-0.3-0.7-0.6-1-0.7c-0.3-0.1-0.7-0.1-1.1,0.1
		c-0.6,0.2-1,0.6-1.2,1.1s-0.1,1.2,0.2,2l0.7,2l6.1-2.2L16.8,62.4z M11.7,64.2l-0.2-0.5c-0.1-0.4-0.2-0.6-0.1-0.9
		c0.1-0.2,0.3-0.4,0.6-0.5s0.6-0.1,0.8,0s0.4,0.3,0.5,0.7l0.2,0.6L11.7,64.2z"/>
	<path class="st0" d="M12.1,58.2c0.7-0.1,1.3-0.3,1.8-0.6s0.8-0.7,1-1.2s0.3-1,0.2-1.6s-0.3-1.1-0.6-1.5s-0.8-0.7-1.3-0.8
		c-0.5-0.2-1.2-0.2-1.9-0.1c-1.1,0.1-1.9,0.5-2.4,1.1c-0.5,0.6-0.7,1.3-0.6,2.3c0.1,0.6,0.3,1.1,0.6,1.5s0.8,0.7,1.3,0.8
		C10.8,58.3,11.4,58.3,12.1,58.2z M9.4,55.6c-0.1-0.4,0.1-0.8,0.4-1.1c0.3-0.3,0.9-0.5,1.7-0.6s1.4-0.1,1.8,0.1
		c0.4,0.2,0.6,0.5,0.7,0.9c0.1,0.4-0.1,0.8-0.4,1c-0.3,0.3-0.9,0.5-1.7,0.6s-1.4,0.1-1.8-0.1C9.7,56.4,9.5,56.1,9.4,55.6z"/>
	<polygon class="st0" points="14.7,47 8.3,44.8 8.2,46.4 13.4,47.8 8.1,48.7 8,50.4 14.6,48.9 	"/>
	<path class="st0" d="M15.3,42.9L14,42.3l0.4-1.8h1.4l0.4-1.6l-6.8,0.4L9,41l5.8,3.4L15.3,42.9z M13,41.7l-2.6-1.3h2.9L13,41.7z"/>
	<polygon class="st0" points="18.4,33.8 17.4,33.1 16.4,35.4 11.5,33.3 10.9,34.7 16.9,37.3 	"/>
</g>
</svg>
